<svg width="32" height="35" viewBox="0 0 32 35" fill="none" xmlns="http://www.w3.org/2000/svg">
	<title>cart_full</title>
	<g>
		<path fill="#fff" d="M26.85,34.5H4.66a3,3,0,0,1-3-2.77L0,10.53A3,3,0,0,1,3,7.3H28.51a3,3,0,0,1,3,3.23l-1.66,21.2A3,3,0,0,1,26.85,34.5ZM1,10.46l1.66,21.2a2,2,0,0,0,2,1.84H26.85a2,2,0,0,0,2-1.84l1.66-21.2a2,2,0,0,0-2-2.16H3a2,2,0,0,0-2,2.16Z"/>
		<path fill="#fff" d="M24.25,18l-1,0c0-.11.23-10.93-4-15.24a5.55,5.55,0,0,0-8.06,0C7,7,7.26,17.86,7.26,18l-1,0c0-.46-.25-11.35,4.25-16A6.55,6.55,0,0,1,20,2C24.5,6.65,24.26,17.54,24.25,18Z"/>
	</g>
</svg>