<svg xmlns="http://www.w3.org/2000/svg" viewBox="0 0 14.51 16.5" width="16" height="17">
	<title>cart</title>
	<g>
		<path fill="#333" d="M11,16.5H3.52a3,3,0,0,1-3-2.76L0,7.11A3,3,0,0,1,3,3.87h8.51a3,3,0,0,1,3,3.24L14,13.74A3,3,0,0,1,11,16.5ZM3,4.87A2,2,0,0,0,1,7l.52,6.63a2,2,0,0,0,2,1.84H11a2,2,0,0,0,2-1.84L13.5,7a2,2,0,0,0-2-2.16Z"/>
		<path fill="#333" d="M11.75,9l-1,0c0-.05.11-5.27-1.83-7.27a2.28,2.28,0,0,0-3.33,0C3.64,3.72,3.75,8.93,3.75,9l-1,0c0-.23-.12-5.69,2.12-8A3.28,3.28,0,0,1,9.64,1C11.87,3.32,11.76,8.78,11.75,9Z"/>
	</g>
</svg>