<svg width="16" height="16" viewBox="0 0 16 16" fill="none" xmlns="http://www.w3.org/2000/svg">
	<title>clipboard</title>
	<g>
		<path fill="#fff" d="M12,16H2a2,2,0,0,1-2-2V4A2,2,0,0,1,2,2H12a2,2,0,0,1,2,2V14A2,2,0,0,1,12,16ZM2,3A1,1,0,0,0,1,4V14a1,1,0,0,0,1,1H12a1,1,0,0,0,1-1V4a1,1,0,0,0-1-1Z"/>
		<path fill="#fff" d="M13.89,14a2.12,2.12,0,0,1-.52-.06l.24-1A1.11,1.11,0,0,0,15,11.94V2.5A1.5,1.5,0,0,0,13.5,1H4.34a1.5,1.5,0,0,0-1.5,1.5v.13h-1V2.5A2.5,2.5,0,0,1,4.34,0H13.5A2.5,2.5,0,0,1,16,2.5v9.44A2.11,2.11,0,0,1,13.89,14Z"/>
	</g>
</svg>