<svg width="16" height="16" viewBox="0 0 16 16" fill="none" xmlns="http://www.w3.org/2000/svg">
	<title>favorit</title>
	<g>
		<path fill="#333" d="M7.94,15.85A76.07,76.07,0,0,1,1.25,7.91C-.16,6.06-.39,4.06.61,2.39A4.94,4.94,0,0,1,5.43.05,3.5,3.5,0,0,1,8.28,3l-1,.21A2.46,2.46,0,0,0,5.27,1a4,4,0,0,0-3.8,1.87C.68,4.22.89,5.78,2,7.3a76.82,76.82,0,0,0,6.59,7.83Z"/>
		<path fill="#333" d="M7.93,15.86l-.69-.73A73.88,73.88,0,0,0,13.87,7.3,3.68,3.68,0,0,0,14.42,3a4.27,4.27,0,0,0-4.07-2A2.49,2.49,0,0,0,8.27,3.2L7.29,3A3.52,3.52,0,0,1,10.19.06a5.25,5.25,0,0,1,5.09,2.43c.58,1,1.27,2.95-.61,5.42A73.09,73.09,0,0,1,7.93,15.86Z"/>
		<path fill="#333" d="M7.28,2.71h1l0,.53h-1Z"/>
	</g>
</svg>