<svg width="16" height="16" viewBox="0 0 16 16" fill="none" xmlns="http://www.w3.org/2000/svg">
	<title>like</title>
	<g>
		<path fill="#fff" d="M8.32,3.26,9.65,1l3.44.43,1.3,2.17V6.32L7.9,14.2,1.83,6.25.94,4,2.23,1.9l3-1.29L7.5,3.32,8,3.86Z"/>
		<path fill="#fff" d="M7.89,15,1.36,6.44.39,4l1.5-2.5L5.39,0l2.5,3h0L9.39.5l4,.5,1.5,2.5v3ZM2.27,6l5.65,7.39,6-7.25V3.78L12.78,1.93,9.91,1.57,8,4.72,5.1,1.21,2.58,2.29,1.5,4.09Z"/>
		<path fill="#fff" d="M7.94,15.85A76.07,76.07,0,0,1,1.25,7.91C-.16,6.06-.39,4.06.61,2.39A4.94,4.94,0,0,1,5.43.05,3.5,3.5,0,0,1,8.28,3l-1,.21A2.46,2.46,0,0,0,5.27,1a4,4,0,0,0-3.8,1.87C.68,4.22.89,5.78,2,7.3a76.82,76.82,0,0,0,6.59,7.83Z"/>
		<path fill="#fff" d="M7.93,15.86l-.69-.73A73.88,73.88,0,0,0,13.87,7.3,3.68,3.68,0,0,0,14.42,3a4.27,4.27,0,0,0-4.07-2A2.49,2.49,0,0,0,8.27,3.2L7.29,3A3.52,3.52,0,0,1,10.19.06a5.25,5.25,0,0,1,5.09,2.43c.58,1,1.27,2.95-.61,5.42A73.09,73.09,0,0,1,7.93,15.86Z"/>
		<path fill="#fff" d="M7.28,2.71h1l0,.53h-1Z"/>
	</g>
</svg>