<svg width="16" height="16" viewBox="0 0 16 16" fill="none" xmlns="http://www.w3.org/2000/svg">
	<title>product</title>
	<g>
		<path fill="#333" d="M7.5,15A7.5,7.5,0,1,1,15,7.5,7.51,7.51,0,0,1,7.5,15Zm0-14A6.5,6.5,0,1,0,14,7.5,6.51,6.51,0,0,0,7.5,1Z"/>
		<path fill="#333" d="M11.5,6c-.14,0-.38,0-2.89-1.5H6.4C3.88,6,3.64,6,3.5,6V5.5L3.41,5c.24-.07,1.53-.8,2.59-1.44l.12-.07H8.89L9,3.57c1.06.64,2.35,1.37,2.59,1.44Z"/><polygon fill="#333" points="5.76 11.44 4.76 11.44 4.76 7.4 3.02 7.1 3.02 4.89 4.02 4.89 4.02 6.26 5.76 6.55 5.76 11.44"/>
		<polygon fill="#333" points="9.25 11.44 9.24 6.55 10.98 6.26 10.98 4.89 11.98 4.89 11.98 7.1 10.24 7.4 10.25 11.44 9.25 11.44"/>
		<rect fill="#333" x="5.01" y="10.44" width="4.99" height="1"/>
		<path fill="#333" d="M7.5,6.29c-1.34,0-1.92-1.93-2-2.15l1-.27c.16.57.6,1.42,1,1.42s.88-.92,1-1.42l1,.27C9.42,4.35,8.84,6.29,7.5,6.29Z"/>
	</g>
</svg>